<svg width="25" height="24" viewBox="0 0 25 24" fill="none" xmlns="http://www.w3.org/2000/svg">
<path d="M12.4875 0.248535C5.5875 0.248535 0 5.49631 0 11.9623C0 18.4283 5.5875 23.6761 12.4875 23.6761C19.4 23.6761 25 18.4283 25 11.9623C25 5.49631 19.4 0.248535 12.4875 0.248535ZM21.15 7.2768H17.4625C17.0625 5.81258 16.4875 4.40693 15.7375 3.1067C18.0375 3.84467 19.95 5.34403 21.15 7.2768ZM12.5 2.63815C13.5375 4.0438 14.35 5.60173 14.8875 7.2768H10.1125C10.65 5.60173 11.4625 4.0438 12.5 2.63815ZM2.825 14.3051C2.625 13.5554 2.5 12.7706 2.5 11.9623C2.5 11.1541 2.625 10.3692 2.825 9.61956H7.05C6.95 10.3927 6.875 11.1658 6.875 11.9623C6.875 12.7589 6.95 13.532 7.05 14.3051H2.825ZM3.85 16.6478H7.5375C7.9375 18.1121 8.5125 19.5177 9.2625 20.8179C6.9625 20.08 5.05 18.5923 3.85 16.6478ZM7.5375 7.2768H3.85C5.05 5.33232 6.9625 3.84467 9.2625 3.1067C8.5125 4.40693 7.9375 5.81258 7.5375 7.2768ZM12.5 21.2865C11.4625 19.8808 10.65 18.3229 10.1125 16.6478H14.8875C14.35 18.3229 13.5375 19.8808 12.5 21.2865ZM15.425 14.3051H9.575C9.4625 13.532 9.375 12.7589 9.375 11.9623C9.375 11.1658 9.4625 10.381 9.575 9.61956H15.425C15.5375 10.381 15.625 11.1658 15.625 11.9623C15.625 12.7589 15.5375 13.532 15.425 14.3051ZM15.7375 20.8179C16.4875 19.5177 17.0625 18.1121 17.4625 16.6478H21.15C19.95 18.5806 18.0375 20.08 15.7375 20.8179ZM17.95 14.3051C18.05 13.532 18.125 12.7589 18.125 11.9623C18.125 11.1658 18.05 10.3927 17.95 9.61956H22.175C22.375 10.3692 22.5 11.1541 22.5 11.9623C22.5 12.7706 22.375 13.5554 22.175 14.3051H17.95Z" fill="white"/>
</svg>
